<svg width="60" height="60" viewBox="0 0 60 60" fill="none" xmlns="http://www.w3.org/2000/svg">
  <!-- Background circle -->
  <circle cx="30" cy="30" r="30" fill="#1e40af"/>
  
  <!-- Building/Government icon -->
  <rect x="15" y="20" width="8" height="25" fill="white" rx="1"/>
  <rect x="25" y="15" width="8" height="30" fill="white" rx="1"/>
  <rect x="35" y="18" width="8" height="27" fill="white" rx="1"/>
  
  <!-- Windows -->
  <rect x="17" y="22" width="2" height="2" fill="#1e40af"/>
  <rect x="20" y="22" width="2" height="2" fill="#1e40af"/>
  <rect x="17" y="26" width="2" height="2" fill="#1e40af"/>
  <rect x="20" y="26" width="2" height="2" fill="#1e40af"/>
  
  <rect x="27" y="17" width="2" height="2" fill="#1e40af"/>
  <rect x="30" y="17" width="2" height="2" fill="#1e40af"/>
  <rect x="27" y="21" width="2" height="2" fill="#1e40af"/>
  <rect x="30" y="21" width="2" height="2" fill="#1e40af"/>
  <rect x="27" y="25" width="2" height="2" fill="#1e40af"/>
  <rect x="30" y="25" width="2" height="2" fill="#1e40af"/>
  
  <rect x="37" y="20" width="2" height="2" fill="#1e40af"/>
  <rect x="40" y="20" width="2" height="2" fill="#1e40af"/>
  <rect x="37" y="24" width="2" height="2" fill="#1e40af"/>
  <rect x="40" y="24" width="2" height="2" fill="#1e40af"/>
  
  <!-- Flag pole -->
  <rect x="29" y="10" width="2" height="8" fill="white"/>
  
  <!-- Flag -->
  <path d="M31 12 L38 12 L38 16 L31 16 Z" fill="#dc2626"/>
</svg>

